# xmcd
#
# Track frame offsets:
#	150
#	10687
#	26664
#	42024
#	59645
#	74274
#	88388
#	101592
#	119508
#	132781
#	144964
#	163779
#	180794
#	190197
#	206137
#	219750
#	231508
#	247387
#	262085
#	282448
#	297745
#	313021
#	324561
#	344367
#
# Disc length: 4741 seconds
#
# Revision: 1
# Processed by: cddbd v1.5.2PL0 Copyright (c) Steve Scherf et al.
# Submitted via: audiograbber 1.83.01
#
DISCID=7b128318
DTITLE=Diamond Back of Texas - Diamond Back of Texas 019
DYEAR=2007
DGENRE=Country
TTITLE0=High Gear  - Bruce Greaves
TTITLE1=Women Wild, Whiskey Strong  - B. Jeff Stone
TTITLE2=A Devil With Wings - Bernie Underwood
TTITLE3=I´m Long Gone  - Mitch Snow
TTITLE4=Do You Love Me  - Wiliam Ray and Juli Maners
TTITLE5=Rather Lucky  - Rain Check
TTITLE6=Came To Me In A Crossroads  - Lance Miller
TTITLE7=Winefree Jones  - Jerry Sartain The Tuch Of Texas Band
TTITLE8=Pass Me By  - Marilyn Mcconnell
TTITLE9=Come On Over - Mich Kovar
TTITLE10=Daughter Of Mine  - East Craft
TTITLE11=Money Ain´t Everything  - William Ray
TTITLE12=38 Wheels - Ray Sanders
TTITLE13=Six Young Men  - Mak Kaylor and Julie Maners
TTITLE14=Hearts In Harmony  - East Craft
TTITLE15=Did He Say It Better Than Me  - Bruce Greaves
TTITLE16=French Connection  - Dave Besley
TTITLE17=Moonlight Rendezvous  - Dave Besley and Twila Powers
TTITLE18=Precious Memories  - Fraser Newcombe
TTITLE19=Ramblin Roy  - Stan Lowhon
TTITLE20=Louis Vuitton  - C J Borden
TTITLE21=With You - Rain Check
TTITLE22=Mexican Eyes  - Jerry Sartain The Tuch Of Texas Band
TTITLE23=In The Misty Moon Light  - B. Jeff Stone
EXTD=
EXTT0=
EXTT1=
EXTT2=
EXTT3=
EXTT4=
EXTT5=
EXTT6=
EXTT7=
EXTT8=
EXTT9=
EXTT10=
EXTT11=
EXTT12=
EXTT13=
EXTT14=
EXTT15=
EXTT16=
EXTT17=
EXTT18=
EXTT19=
EXTT20=
EXTT21=
EXTT22=
EXTT23=
PLAYORDER=
